# xmcd
#
# Track frame offsets:
#	150
#	22763
#	36283
#	53422
#	67238
#	80956
#	93948
#	109473
#	125090
#	138041
#	154274
#	169725
#	183659
#	201421
#
# Disc length: 2865 seconds
#
# Revision: 4
# Processed by: cddbd v1.5.2PL0 Copyright (c) Steve Scherf et al.
# Submitted via: audiograbber 1.83.01
#
DISCID=c80b2f0e
DTITLE=Isla Grant - The Beauty Of My Home
DYEAR=2003
DGENRE=Country
TTITLE0=Living In My Mind
TTITLE1=How Lucky I Must Be
TTITLE2=The Beauty Of My Home
TTITLE3=My Home In Moneymore
TTITLE4=Grandpa's Fiddle
TTITLE5=That's The Day (I'll Stop Loving You)
TTITLE6=Spread A Little Happiness
TTITLE7=You're The Best Friend
TTITLE8=Come On In
TTITLE9=Twinkle, Twinkle Little Star
TTITLE10=An Angel's Wings
TTITLE11=An Accordion Started To Play
TTITLE12=Call On Me
TTITLE13=Many Reasons
EXTD=YEAR: 2003 ID3G: 2
EXTT0=
EXTT1=
EXTT2=
EXTT3=
EXTT4=
EXTT5=
EXTT6=
EXTT7=
EXTT8=
EXTT9=
EXTT10=
EXTT11=
EXTT12=
EXTT13=
PLAYORDER=
